<svg id="svg" version="1.1" xmlns="http://www.w3.org/2000/svg" xmlns:xlink="http://www.w3.org/1999/xlink" width="400" height="67.0391061452514" viewBox="0, 0, 400,67.0391061452514"><g id="svgg"><path id="path0" d="M153.000 0.311 C 153.000 0.637,151.483 2.167,151.159 2.167 C 151.056 2.167,150.509 2.607,149.944 3.146 C 149.379 3.684,148.654 4.254,148.333 4.411 C 148.012 4.569,147.300 5.137,146.750 5.675 C 146.200 6.212,145.262 7.026,144.667 7.484 C 144.071 7.941,143.021 8.747,142.333 9.274 C 141.646 9.801,140.667 10.633,140.158 11.123 C 139.649 11.613,138.974 12.169,138.658 12.359 C 138.342 12.549,137.623 13.127,137.061 13.644 C 136.499 14.161,135.720 14.808,135.331 15.083 C 134.942 15.358,134.389 15.811,134.103 16.089 C 133.817 16.367,133.249 16.817,132.841 17.089 C 129.501 19.314,128.493 21.829,131.337 20.845 C 132.065 20.593,132.751 20.500,133.876 20.499 C 134.723 20.499,135.717 20.413,136.083 20.309 C 137.018 20.043,139.659 20.037,140.125 20.300 C 140.596 20.566,140.647 21.716,140.216 22.332 C 140.059 22.555,139.880 23.078,139.817 23.494 C 139.575 25.094,139.279 26.274,138.972 26.868 C 138.797 27.208,138.542 28.068,138.406 28.779 C 138.270 29.490,137.982 30.637,137.767 31.327 C 137.551 32.018,137.323 32.942,137.260 33.380 C 137.197 33.818,136.922 34.818,136.651 35.603 C 136.379 36.388,136.111 37.379,136.055 37.806 C 135.999 38.234,135.838 38.808,135.697 39.083 C 135.556 39.358,135.386 39.883,135.320 40.250 C 134.910 42.505,134.767 43.130,134.568 43.521 C 134.245 44.157,133.834 46.277,133.833 47.302 C 133.833 47.836,133.692 48.516,133.478 49.013 L 133.124 49.838 133.478 50.811 C 133.733 51.509,133.834 52.180,133.837 53.184 C 133.850 57.584,136.989 61.772,142.167 64.296 C 143.313 64.855,144.550 65.363,144.917 65.425 C 146.592 65.710,148.770 66.347,149.000 66.620 C 149.410 67.106,176.859 67.011,177.690 66.520 C 178.941 65.783,178.833 67.109,178.833 52.468 L 178.833 39.328 179.375 38.740 C 179.796 38.283,180.177 38.083,181.083 37.845 C 181.725 37.676,182.598 37.379,183.023 37.186 C 183.522 36.959,184.379 36.785,185.440 36.694 C 186.387 36.614,187.309 36.437,187.617 36.277 C 187.977 36.090,188.561 36.000,189.417 36.000 C 191.925 36.000,192.167 35.561,192.167 31.007 C 192.167 27.126,192.193 27.202,190.618 26.515 C 189.383 25.977,189.366 25.974,188.811 26.263 C 188.473 26.438,187.595 26.610,186.607 26.694 C 184.783 26.850,182.048 27.690,180.996 28.419 C 180.062 29.067,179.642 28.974,178.433 27.849 C 177.119 26.626,177.058 26.617,170.742 26.695 C 165.661 26.757,165.551 26.782,165.198 27.961 C 165.051 28.451,165.000 32.688,165.000 44.363 L 165.000 60.104 164.533 60.552 C 164.000 61.062,163.768 61.094,162.979 60.767 C 162.670 60.638,161.817 60.448,161.083 60.344 C 157.687 59.861,154.984 57.875,153.645 54.878 L 152.917 53.250 152.857 50.583 C 152.796 47.827,153.018 45.633,153.442 44.794 C 153.569 44.544,153.824 43.531,154.010 42.544 C 154.195 41.557,154.492 40.412,154.669 40.000 C 154.846 39.587,155.137 38.612,155.316 37.833 C 155.495 37.054,155.722 36.208,155.819 35.953 C 155.916 35.698,156.144 34.760,156.326 33.870 C 156.508 32.979,156.884 31.594,157.161 30.792 C 157.439 29.990,157.667 29.143,157.667 28.909 C 157.667 28.675,157.793 28.243,157.948 27.950 C 158.102 27.657,158.281 27.079,158.346 26.667 C 158.595 25.068,158.863 23.970,159.172 23.291 C 159.348 22.902,159.494 22.351,159.496 22.067 C 159.510 20.181,161.029 19.605,164.346 20.231 C 165.133 20.379,166.342 20.500,167.034 20.500 C 167.776 20.500,168.538 20.603,168.891 20.750 C 171.140 21.690,171.653 20.334,169.759 18.454 C 169.184 17.884,168.559 17.117,168.370 16.750 C 168.181 16.383,167.563 15.633,166.996 15.083 C 166.430 14.533,165.658 13.671,165.281 13.167 C 164.904 12.662,163.984 11.612,163.236 10.833 C 162.488 10.054,161.824 9.248,161.760 9.041 C 161.696 8.835,160.955 7.929,160.114 7.028 C 159.272 6.127,158.253 4.965,157.850 4.445 C 157.447 3.925,157.052 3.500,156.974 3.500 C 156.744 3.500,154.670 0.613,154.668 0.292 C 154.667 0.053,154.515 0.000,153.833 0.000 C 153.132 0.000,153.000 0.049,153.000 0.311 M19.000 26.291 C 18.627 26.460,17.637 26.599,16.250 26.676 C 14.634 26.765,13.766 26.901,12.833 27.210 C 12.146 27.438,11.196 27.715,10.723 27.825 C 10.250 27.936,9.619 28.206,9.321 28.426 C 9.023 28.645,8.510 28.913,8.181 29.020 C 7.852 29.127,7.283 29.416,6.917 29.663 C 6.550 29.911,5.926 30.327,5.529 30.588 C 5.133 30.849,4.533 31.429,4.196 31.878 C 3.859 32.326,3.347 32.968,3.059 33.306 C 2.419 34.054,1.323 36.105,0.930 37.292 C 0.714 37.943,0.558 38.167,0.320 38.167 C 0.009 38.167,0.000 38.400,0.000 46.921 L 0.000 55.675 0.400 55.827 C 0.686 55.936,0.882 56.231,1.088 56.864 C 1.246 57.352,1.496 57.887,1.643 58.055 C 1.789 58.223,2.098 58.725,2.329 59.171 C 3.137 60.730,4.799 62.715,5.723 63.223 C 6.196 63.484,6.733 63.832,6.917 63.997 C 7.408 64.438,10.244 65.769,11.551 66.170 C 12.174 66.362,12.726 66.627,12.777 66.759 C 12.890 67.055,29.568 67.128,29.750 66.833 C 29.807 66.742,30.032 66.667,30.251 66.667 C 30.986 66.667,33.069 65.596,33.294 65.103 C 33.727 64.153,33.570 58.267,33.098 57.718 L 32.696 57.250 28.473 57.167 C 24.760 57.093,24.099 57.120,23.000 57.389 C 21.952 57.644,21.642 57.661,21.083 57.494 C 20.717 57.383,19.911 57.229,19.292 57.151 C 17.072 56.871,15.050 55.113,14.650 53.117 C 14.555 52.640,14.373 51.832,14.246 51.320 C 13.940 50.092,13.872 42.938,14.162 42.589 C 14.270 42.459,14.433 41.805,14.524 41.135 C 14.616 40.465,14.816 39.737,14.970 39.518 C 15.124 39.299,15.400 38.910,15.583 38.655 C 16.355 37.577,17.986 36.668,19.150 36.666 C 19.480 36.665,19.975 36.515,20.250 36.333 C 20.889 35.910,21.599 35.913,22.685 36.341 C 24.065 36.885,32.468 36.774,33.037 36.204 C 33.528 35.713,33.728 29.123,33.274 28.429 C 33.010 28.028,30.888 27.164,30.167 27.166 C 29.937 27.166,29.225 27.055,28.583 26.920 C 27.852 26.765,26.477 26.671,24.897 26.670 C 22.841 26.667,22.184 26.605,21.333 26.333 C 20.109 25.942,19.784 25.936,19.000 26.291 M57.917 26.330 C 57.373 26.533,56.591 26.649,55.667 26.664 C 54.887 26.676,53.875 26.757,53.417 26.843 C 52.958 26.929,52.153 27.048,51.626 27.106 C 51.100 27.165,50.584 27.315,50.481 27.440 C 50.377 27.565,50.224 27.667,50.141 27.667 C 48.031 27.667,40.167 32.958,40.167 34.377 C 40.167 34.500,39.954 34.937,39.694 35.346 C 39.434 35.756,39.166 36.312,39.099 36.582 C 39.031 36.852,38.786 37.474,38.553 37.965 C 38.321 38.455,38.073 39.325,38.002 39.898 C 37.931 40.471,37.752 41.174,37.603 41.462 C 37.155 42.329,37.206 51.578,37.667 52.917 C 37.850 53.450,38.000 54.161,38.000 54.498 C 38.000 54.835,38.188 55.479,38.419 55.930 C 38.649 56.381,38.914 57.032,39.009 57.377 C 39.103 57.722,39.392 58.247,39.651 58.544 C 39.909 58.841,40.236 59.308,40.376 59.583 C 40.613 60.045,41.875 61.393,43.440 62.854 C 44.151 63.518,48.002 65.520,49.175 65.836 C 50.199 66.111,50.833 66.463,50.833 66.754 C 50.833 66.968,51.945 67.000,59.250 67.000 C 64.750 67.000,67.667 66.942,67.667 66.833 C 67.667 66.619,68.454 66.615,68.528 66.829 C 68.558 66.918,69.071 66.759,69.666 66.475 C 70.298 66.174,71.212 65.900,71.858 65.819 C 72.942 65.683,76.556 64.827,77.397 64.508 C 79.278 63.792,79.033 57.187,77.124 57.159 C 71.434 57.074,69.727 57.126,69.200 57.398 C 68.195 57.920,58.139 57.726,56.583 57.155 C 53.807 56.137,51.833 53.790,51.833 51.506 C 51.833 50.353,50.964 50.425,65.900 50.333 C 79.764 50.248,79.917 50.239,80.179 49.550 C 80.564 48.537,80.362 40.469,79.932 39.660 C 79.711 39.245,79.449 38.466,79.350 37.928 C 79.250 37.391,79.023 36.719,78.844 36.434 C 78.665 36.150,78.375 35.617,78.199 35.250 C 78.023 34.883,77.512 34.217,77.064 33.769 C 76.616 33.321,76.100 32.646,75.917 32.269 C 75.683 31.788,75.379 31.484,74.899 31.250 C 74.243 30.930,73.827 30.636,72.593 29.621 C 72.284 29.367,71.627 29.020,71.133 28.850 C 70.638 28.680,69.938 28.392,69.575 28.210 C 69.213 28.028,68.617 27.826,68.250 27.761 C 67.883 27.696,67.060 27.457,66.421 27.229 C 65.523 26.908,64.746 26.784,63.002 26.684 C 61.761 26.612,60.597 26.476,60.414 26.380 C 59.748 26.029,58.774 26.009,57.917 26.330 M111.833 26.333 C 111.376 26.584,110.903 26.654,109.645 26.660 C 108.021 26.667,105.957 27.024,105.131 27.440 C 104.883 27.566,104.133 27.782,103.465 27.921 C 102.797 28.060,102.063 28.309,101.833 28.475 C 101.353 28.822,100.425 29.167,99.973 29.167 C 99.757 29.167,99.540 28.891,99.263 28.264 C 98.581 26.720,98.707 26.750,92.840 26.750 C 87.273 26.750,87.132 26.772,86.348 27.769 L 86.000 28.212 86.000 46.867 C 86.000 67.002,85.948 65.976,86.995 66.395 C 87.364 66.543,87.667 66.721,87.667 66.790 C 87.667 67.006,97.790 66.873,98.475 66.649 C 100.661 65.931,100.496 67.176,100.498 51.384 L 100.500 38.352 100.870 38.093 C 101.074 37.950,101.424 37.833,101.647 37.833 C 101.871 37.833,102.384 37.640,102.786 37.404 C 103.206 37.158,103.995 36.904,104.634 36.809 C 105.248 36.717,106.219 36.488,106.792 36.299 C 107.986 35.905,109.721 35.946,110.390 36.384 C 110.605 36.524,111.111 36.726,111.515 36.832 C 112.298 37.038,113.616 38.268,113.748 38.917 C 114.144 40.863,114.191 42.379,114.180 52.917 C 114.168 65.195,114.173 65.279,115.073 66.128 C 115.400 66.436,115.667 66.739,115.667 66.802 C 115.667 66.865,118.217 66.917,121.333 66.917 C 125.756 66.917,127.000 66.871,127.000 66.708 C 127.000 66.594,127.069 66.500,127.154 66.500 C 127.239 66.500,127.539 66.306,127.821 66.069 L 128.333 65.637 128.333 51.530 C 128.333 38.064,128.319 37.385,128.016 36.587 C 127.578 35.431,127.167 33.957,127.167 33.540 C 127.167 33.349,126.995 32.980,126.785 32.721 C 126.574 32.462,126.283 32.063,126.136 31.833 C 125.488 30.818,123.899 29.283,123.099 28.897 C 122.632 28.673,121.987 28.343,121.667 28.164 C 119.731 27.086,118.910 26.824,117.150 26.724 C 116.168 26.668,115.003 26.490,114.464 26.313 C 113.269 25.921,112.577 25.926,111.833 26.333 M270.000 26.319 C 269.496 26.488,268.477 26.669,267.736 26.722 C 266.976 26.777,265.813 27.009,265.069 27.256 C 264.344 27.497,263.348 27.801,262.856 27.933 C 262.364 28.065,261.773 28.321,261.542 28.503 C 260.675 29.185,259.618 28.974,258.819 27.958 C 258.440 27.477,258.007 27.008,257.856 26.917 C 257.413 26.646,247.375 26.697,246.720 26.974 C 245.617 27.439,245.667 26.491,245.667 46.966 C 245.667 67.427,245.582 65.918,246.761 66.411 C 247.076 66.542,247.333 66.710,247.333 66.783 C 247.333 66.980,257.630 66.903,257.878 66.705 C 257.991 66.615,258.250 66.490,258.454 66.427 C 259.560 66.088,259.500 66.920,259.500 51.915 C 259.500 41.278,259.545 38.340,259.708 38.215 C 260.141 37.885,262.793 36.937,263.833 36.740 C 264.429 36.627,265.264 36.399,265.689 36.234 C 266.448 35.938,266.474 35.939,267.189 36.288 C 267.589 36.483,268.220 36.721,268.590 36.817 C 269.441 37.039,270.276 38.150,270.507 39.371 C 270.600 39.860,270.667 45.478,270.667 52.789 L 270.667 65.366 271.182 65.848 C 271.466 66.113,271.991 66.417,272.349 66.524 C 272.707 66.632,273.000 66.764,273.000 66.818 C 273.000 67.027,283.326 66.925,283.407 66.716 C 283.449 66.605,283.784 66.362,284.151 66.175 C 284.666 65.912,284.857 65.693,284.991 65.209 C 285.246 64.292,285.231 41.155,284.974 39.470 C 284.667 37.449,285.302 36.834,287.833 36.700 C 288.761 36.651,289.464 36.517,289.868 36.313 C 290.657 35.914,291.125 35.919,291.750 36.333 C 292.025 36.515,292.475 36.667,292.750 36.669 C 293.812 36.679,294.608 37.230,295.200 38.363 L 295.750 39.417 295.833 52.341 C 295.926 66.778,295.849 65.912,297.096 66.433 C 297.410 66.564,297.667 66.726,297.667 66.794 C 297.667 66.861,300.217 66.917,303.333 66.917 C 306.834 66.917,309.000 66.856,309.000 66.757 C 309.000 66.669,309.281 66.309,309.625 65.957 L 310.250 65.317 310.296 51.909 C 310.337 39.638,310.317 38.464,310.064 38.077 C 309.894 37.818,309.732 37.058,309.646 36.119 C 309.500 34.533,308.921 33.084,307.893 31.734 C 307.677 31.451,307.500 31.127,307.500 31.016 C 307.500 30.674,305.842 29.038,305.376 28.921 C 305.134 28.861,304.719 28.656,304.452 28.466 C 303.982 28.131,302.176 27.382,300.682 26.903 C 300.278 26.773,299.406 26.667,298.745 26.667 C 298.019 26.667,297.147 26.540,296.541 26.346 C 295.531 26.024,294.843 26.054,294.079 26.454 C 293.898 26.549,292.737 26.663,291.500 26.708 C 289.548 26.778,289.045 26.858,287.706 27.311 C 286.857 27.598,286.032 27.833,285.873 27.833 C 285.713 27.834,285.133 28.046,284.583 28.305 C 282.553 29.261,281.141 29.313,279.962 28.473 C 279.694 28.282,278.973 27.940,278.362 27.713 C 277.750 27.486,276.875 27.161,276.417 26.989 C 275.902 26.797,275.136 26.675,274.414 26.672 C 273.572 26.668,273.071 26.574,272.623 26.333 C 271.858 25.923,271.190 25.919,270.000 26.319 M198.167 26.847 C 197.612 26.954,197.254 27.165,196.792 27.656 L 196.167 28.320 196.167 41.922 L 196.167 55.523 196.577 57.141 C 197.382 60.316,198.577 62.627,200.148 64.047 C 200.798 64.634,203.961 66.333,204.404 66.333 C 204.550 66.333,204.798 66.483,204.955 66.667 C 205.333 67.108,218.206 67.198,218.450 66.761 C 218.587 66.517,220.458 65.791,221.500 65.578 C 221.821 65.512,222.519 65.239,223.052 64.971 C 224.222 64.384,224.441 64.434,225.331 65.498 C 225.736 65.981,226.248 66.389,226.590 66.502 C 226.907 66.607,227.167 66.743,227.167 66.805 C 227.167 66.866,229.267 66.917,231.833 66.917 C 234.400 66.917,236.500 66.866,236.500 66.805 C 236.500 66.743,236.761 66.606,237.081 66.501 C 238.446 66.050,238.333 67.816,238.333 46.833 L 238.333 28.212 237.985 27.769 C 237.218 26.793,237.003 26.755,231.901 26.695 C 226.274 26.629,225.529 26.726,224.612 27.643 L 223.973 28.282 223.993 41.142 C 224.017 56.385,224.145 55.313,222.196 56.118 C 217.721 57.966,213.431 57.975,211.716 56.139 C 210.610 54.953,210.645 55.433,210.661 42.024 C 210.678 27.311,210.669 27.244,208.495 26.825 C 207.536 26.640,199.151 26.658,198.167 26.847 M62.160 36.540 C 64.245 37.343,65.474 38.692,66.001 40.754 C 66.684 43.425,66.946 43.333,58.650 43.333 C 50.938 43.333,51.389 43.421,51.587 41.963 C 52.203 37.440,57.478 34.734,62.160 36.540 " stroke="none" fill="#084e86" fill-rule="evenodd"></path><path id="path1" d="M342.000 27.005 C 341.129 27.169,339.873 27.536,339.208 27.819 C 338.544 28.102,337.461 28.556,336.801 28.828 C 336.142 29.100,335.539 29.436,335.462 29.574 C 335.384 29.713,334.968 30.068,334.535 30.363 C 332.817 31.539,331.511 33.004,330.796 34.559 C 330.634 34.912,330.324 35.411,330.107 35.668 C 329.873 35.947,329.670 36.463,329.606 36.943 C 329.547 37.387,329.336 38.012,329.138 38.333 C 328.863 38.778,328.748 39.319,328.654 40.609 C 328.585 41.539,328.448 42.453,328.348 42.639 C 328.061 43.176,328.113 49.801,328.417 51.390 C 328.554 52.108,328.668 53.046,328.669 53.473 C 328.672 54.293,329.842 58.041,330.236 58.494 C 330.359 58.635,330.614 59.107,330.805 59.544 C 331.122 60.274,334.130 63.500,334.492 63.500 C 334.563 63.500,334.912 63.733,335.269 64.017 C 336.061 64.649,337.441 65.354,338.667 65.751 C 339.171 65.914,339.731 66.150,339.912 66.274 C 340.093 66.398,340.452 66.500,340.709 66.500 C 340.971 66.500,341.219 66.610,341.273 66.750 C 341.357 66.968,342.509 67.000,350.248 67.000 L 359.126 67.000 359.766 66.071 C 360.384 65.173,360.408 65.086,360.472 63.490 L 360.539 61.839 359.936 61.236 C 359.363 60.663,359.294 60.639,358.542 60.749 C 356.342 61.070,344.829 61.025,344.282 60.692 C 343.989 60.515,343.488 60.316,343.167 60.252 C 341.768 59.970,339.129 57.995,338.647 56.870 C 338.473 56.464,338.181 55.943,337.999 55.711 C 337.573 55.170,336.947 53.074,337.050 52.535 C 337.094 52.306,336.989 51.812,336.818 51.435 C 336.448 50.620,336.344 43.740,336.685 42.666 C 336.787 42.345,336.933 41.746,337.009 41.333 C 337.468 38.869,338.346 36.987,339.643 35.690 C 340.580 34.754,342.498 33.500,342.998 33.498 C 343.228 33.498,343.792 33.312,344.250 33.087 L 345.083 32.677 352.282 32.672 L 359.481 32.667 359.942 32.270 C 360.379 31.894,360.407 31.785,360.472 30.173 L 360.540 28.472 359.903 27.819 C 359.301 27.202,359.210 27.167,358.258 27.167 C 357.703 27.167,356.725 27.055,356.083 26.920 C 354.265 26.534,344.163 26.595,342.000 27.005 M367.463 27.509 C 366.619 27.955,366.497 28.257,366.517 29.864 C 366.553 32.905,365.529 32.666,378.528 32.666 C 384.364 32.667,389.258 32.712,389.403 32.768 C 390.508 33.192,389.447 34.331,371.960 51.505 C 369.233 54.183,366.838 56.646,366.637 56.978 C 366.436 57.311,366.098 57.795,365.886 58.054 C 365.517 58.505,365.500 58.648,365.500 61.274 C 365.500 64.489,365.447 64.351,367.176 65.653 L 368.521 66.667 383.273 66.667 L 398.026 66.667 399.011 66.208 L 399.997 65.750 399.998 63.792 C 400.000 62.247,399.952 61.833,399.772 61.833 C 399.647 61.833,399.330 61.665,399.068 61.458 L 398.592 61.083 386.671 61.000 L 374.750 60.917 374.700 60.411 C 374.655 59.946,375.173 59.388,381.200 53.411 C 398.054 36.698,398.660 36.067,399.104 34.765 C 399.258 34.314,399.477 34.001,399.677 33.949 C 400.130 33.830,400.185 28.833,399.732 28.833 C 399.585 28.833,399.325 28.656,399.154 28.439 C 398.984 28.222,398.440 27.847,397.947 27.606 L 397.050 27.167 382.567 27.174 C 368.501 27.181,368.065 27.191,367.463 27.509 M319.833 56.667 C 316.331 56.796,316.333 56.794,316.333 61.821 C 316.333 64.672,316.378 65.323,316.594 65.632 C 316.898 66.066,318.001 66.667,318.493 66.667 C 318.680 66.667,318.833 66.742,318.833 66.833 C 318.833 66.925,319.133 67.000,319.500 67.000 C 319.867 67.000,320.167 66.925,320.167 66.833 C 320.167 66.739,320.639 66.667,321.250 66.667 C 321.861 66.667,322.333 66.739,322.333 66.833 C 322.333 67.231,323.416 66.999,323.702 66.541 C 323.859 66.289,324.159 65.872,324.369 65.613 C 324.990 64.848,325.045 59.072,324.442 57.884 C 323.801 56.618,323.475 56.532,319.833 56.667 " stroke="none" fill="#f4951f" fill-rule="evenodd"></path><path id="path2" d="M0.000 19.083 C 0.000 37.789,0.006 38.167,0.320 38.167 C 0.558 38.167,0.714 37.943,0.930 37.292 C 1.323 36.105,2.419 34.054,3.059 33.306 C 3.347 32.968,3.859 32.326,4.196 31.878 C 4.533 31.429,5.133 30.849,5.529 30.588 C 5.926 30.327,6.550 29.911,6.917 29.663 C 7.283 29.416,7.852 29.127,8.181 29.020 C 8.510 28.913,9.023 28.645,9.321 28.426 C 9.619 28.206,10.250 27.936,10.723 27.825 C 11.196 27.715,12.146 27.438,12.833 27.210 C 13.767 26.901,14.631 26.766,16.250 26.677 C 17.673 26.599,18.638 26.462,19.062 26.279 C 19.883 25.924,20.066 25.929,21.333 26.333 C 22.184 26.605,22.841 26.667,24.897 26.670 C 26.477 26.671,27.852 26.765,28.583 26.920 C 29.225 27.055,29.937 27.166,30.167 27.166 C 30.888 27.164,33.010 28.028,33.274 28.429 C 33.728 29.123,33.528 35.713,33.037 36.204 C 32.468 36.774,24.065 36.885,22.685 36.341 C 21.599 35.913,20.889 35.910,20.250 36.333 C 19.975 36.515,19.480 36.665,19.150 36.666 C 17.986 36.668,16.355 37.577,15.583 38.655 C 15.400 38.910,15.124 39.299,14.970 39.518 C 14.816 39.737,14.616 40.465,14.524 41.135 C 14.433 41.805,14.270 42.459,14.162 42.589 C 13.872 42.938,13.940 50.092,14.246 51.320 C 14.373 51.832,14.555 52.640,14.650 53.117 C 15.050 55.113,17.072 56.871,19.292 57.151 C 19.911 57.229,20.717 57.383,21.083 57.494 C 21.642 57.661,21.952 57.644,23.000 57.389 C 24.099 57.120,24.760 57.093,28.473 57.167 L 32.696 57.250 33.098 57.718 C 33.570 58.267,33.727 64.153,33.294 65.103 C 33.069 65.596,30.986 66.667,30.251 66.667 C 30.032 66.667,29.807 66.742,29.750 66.833 C 29.682 66.944,33.220 67.000,40.240 67.000 C 49.463 67.000,50.833 66.968,50.833 66.754 C 50.833 66.463,50.199 66.111,49.175 65.836 C 48.002 65.520,44.151 63.518,43.440 62.854 C 41.875 61.393,40.613 60.045,40.376 59.583 C 40.236 59.308,39.909 58.841,39.651 58.544 C 39.392 58.247,39.103 57.722,39.009 57.377 C 38.914 57.032,38.649 56.381,38.419 55.930 C 38.188 55.479,38.000 54.835,38.000 54.498 C 38.000 54.161,37.850 53.450,37.667 52.917 C 37.206 51.578,37.155 42.329,37.603 41.462 C 37.752 41.174,37.931 40.471,38.002 39.898 C 38.073 39.325,38.321 38.455,38.553 37.965 C 38.786 37.474,39.031 36.852,39.099 36.582 C 39.166 36.312,39.434 35.756,39.694 35.346 C 39.954 34.937,40.167 34.500,40.167 34.377 C 40.167 33.816,43.006 31.219,45.167 29.802 C 45.965 29.279,49.720 27.667,50.141 27.667 C 50.224 27.667,50.377 27.565,50.481 27.440 C 50.584 27.315,51.100 27.165,51.626 27.106 C 52.153 27.048,52.958 26.929,53.417 26.843 C 53.875 26.757,54.857 26.682,55.599 26.677 C 56.493 26.670,57.276 26.554,57.922 26.332 C 58.907 25.993,59.694 26.009,60.414 26.382 C 60.597 26.477,61.761 26.612,63.002 26.684 C 64.746 26.784,65.523 26.908,66.421 27.229 C 67.060 27.457,67.883 27.696,68.250 27.761 C 68.617 27.826,69.213 28.028,69.575 28.210 C 69.938 28.392,70.638 28.680,71.133 28.850 C 71.627 29.020,72.284 29.367,72.593 29.621 C 73.827 30.636,74.243 30.930,74.899 31.250 C 75.379 31.484,75.683 31.788,75.917 32.269 C 76.100 32.646,76.616 33.321,77.064 33.769 C 77.512 34.217,78.023 34.883,78.199 35.250 C 78.375 35.617,78.665 36.150,78.844 36.434 C 79.023 36.719,79.250 37.391,79.350 37.928 C 79.449 38.466,79.711 39.245,79.932 39.660 C 80.362 40.469,80.564 48.537,80.179 49.550 C 79.917 50.239,79.764 50.248,65.900 50.333 C 50.964 50.425,51.833 50.353,51.833 51.506 C 51.833 53.790,53.807 56.137,56.583 57.155 C 58.139 57.726,68.195 57.920,69.200 57.398 C 69.727 57.126,71.434 57.074,77.124 57.159 C 79.056 57.187,79.275 63.792,77.368 64.519 C 76.506 64.848,72.264 65.833,71.712 65.833 C 71.179 65.833,69.254 66.535,68.925 66.849 C 68.830 66.939,72.555 67.000,78.217 67.000 C 87.850 67.000,88.410 66.961,86.995 66.395 C 85.948 65.976,86.000 67.002,86.000 46.867 L 86.000 28.212 86.348 27.769 C 87.132 26.772,87.273 26.750,92.840 26.750 C 98.707 26.750,98.581 26.720,99.263 28.264 C 99.540 28.891,99.757 29.167,99.973 29.167 C 100.425 29.167,101.353 28.822,101.833 28.475 C 102.063 28.309,102.797 28.060,103.465 27.921 C 104.133 27.782,104.883 27.566,105.131 27.440 C 105.958 27.023,108.022 26.667,109.610 26.667 C 110.851 26.667,111.317 26.597,111.833 26.333 C 112.647 25.918,113.247 25.914,114.464 26.313 C 115.003 26.490,116.168 26.668,117.150 26.724 C 118.910 26.824,119.731 27.086,121.667 28.164 C 121.987 28.343,122.632 28.673,123.099 28.897 C 123.899 29.283,125.488 30.818,126.136 31.833 C 126.283 32.063,126.574 32.462,126.785 32.721 C 126.995 32.980,127.167 33.349,127.167 33.540 C 127.167 33.957,127.578 35.431,128.016 36.587 C 128.319 37.385,128.333 38.064,128.333 51.530 L 128.333 65.637 127.821 66.069 C 127.539 66.306,127.239 66.500,127.154 66.500 C 127.069 66.500,127.000 66.612,127.000 66.750 C 127.000 66.970,128.343 67.000,138.083 67.000 C 144.330 67.000,149.167 66.936,149.167 66.854 C 149.167 66.464,147.261 65.824,144.917 65.425 C 144.550 65.363,143.313 64.855,142.167 64.296 C 136.989 61.772,133.850 57.584,133.837 53.184 C 133.834 52.180,133.733 51.509,133.478 50.811 L 133.124 49.838 133.478 49.013 C 133.692 48.516,133.833 47.836,133.833 47.302 C 133.834 46.277,134.245 44.157,134.568 43.521 C 134.767 43.130,134.910 42.505,135.320 40.250 C 135.386 39.883,135.556 39.358,135.697 39.083 C 135.838 38.808,135.999 38.234,136.055 37.806 C 136.111 37.379,136.379 36.388,136.651 35.603 C 136.922 34.818,137.197 33.818,137.260 33.380 C 137.323 32.942,137.551 32.018,137.767 31.327 C 137.982 30.637,138.270 29.490,138.406 28.779 C 138.542 28.068,138.797 27.208,138.972 26.868 C 139.279 26.274,139.575 25.094,139.817 23.494 C 139.880 23.078,140.059 22.555,140.216 22.332 C 140.647 21.716,140.596 20.566,140.125 20.300 C 139.659 20.037,137.018 20.043,136.083 20.309 C 135.717 20.413,134.723 20.499,133.876 20.499 C 132.751 20.500,132.065 20.593,131.337 20.845 C 128.493 21.829,129.501 19.314,132.841 17.089 C 133.249 16.817,133.817 16.367,134.103 16.089 C 134.389 15.811,134.942 15.358,135.331 15.083 C 135.720 14.808,136.499 14.161,137.061 13.644 C 137.623 13.127,138.342 12.549,138.658 12.359 C 138.974 12.169,139.649 11.613,140.158 11.123 C 140.667 10.633,141.646 9.801,142.333 9.274 C 143.021 8.747,144.071 7.941,144.667 7.484 C 145.262 7.026,146.200 6.212,146.750 5.675 C 147.300 5.137,148.012 4.569,148.333 4.411 C 148.654 4.254,149.379 3.684,149.944 3.146 C 150.509 2.607,151.056 2.167,151.159 2.167 C 151.483 2.167,153.000 0.637,153.000 0.311 C 153.000 0.008,151.016 0.000,76.500 0.000 L 0.000 0.000 0.000 19.083 M154.668 0.292 C 154.670 0.613,156.744 3.500,156.974 3.500 C 157.052 3.500,157.447 3.925,157.850 4.445 C 158.253 4.965,159.272 6.127,160.114 7.028 C 160.955 7.929,161.696 8.835,161.760 9.041 C 161.824 9.248,162.488 10.054,163.236 10.833 C 163.984 11.612,164.904 12.662,165.281 13.167 C 165.658 13.671,166.430 14.533,166.996 15.083 C 167.563 15.633,168.181 16.383,168.370 16.750 C 168.559 17.117,169.184 17.884,169.759 18.454 C 171.653 20.334,171.140 21.690,168.891 20.750 C 168.538 20.603,167.776 20.500,167.034 20.500 C 166.342 20.500,165.133 20.379,164.346 20.231 C 161.029 19.605,159.510 20.181,159.496 22.067 C 159.494 22.351,159.348 22.902,159.172 23.291 C 158.863 23.970,158.595 25.068,158.346 26.667 C 158.281 27.079,158.102 27.657,157.948 27.950 C 157.793 28.243,157.667 28.675,157.667 28.909 C 157.667 29.143,157.439 29.990,157.161 30.792 C 156.884 31.594,156.508 32.979,156.326 33.870 C 156.144 34.760,155.916 35.698,155.819 35.953 C 155.722 36.208,155.495 37.054,155.316 37.833 C 155.137 38.612,154.846 39.587,154.669 40.000 C 154.492 40.412,154.195 41.557,154.010 42.544 C 153.824 43.531,153.569 44.544,153.442 44.794 C 153.018 45.633,152.796 47.827,152.857 50.583 L 152.917 53.250 153.645 54.878 C 154.984 57.875,157.687 59.861,161.083 60.344 C 161.817 60.448,162.670 60.638,162.979 60.767 C 163.768 61.094,164.000 61.062,164.533 60.552 L 165.000 60.104 165.000 44.363 C 165.000 32.688,165.051 28.451,165.198 27.961 C 165.551 26.782,165.661 26.757,170.742 26.695 C 177.058 26.617,177.119 26.626,178.433 27.849 C 179.642 28.974,180.062 29.067,180.996 28.419 C 182.048 27.690,184.783 26.850,186.607 26.694 C 187.595 26.610,188.473 26.438,188.811 26.263 C 189.366 25.974,189.383 25.977,190.618 26.515 C 192.193 27.202,192.167 27.126,192.167 31.007 C 192.167 35.561,191.925 36.000,189.417 36.000 C 188.561 36.000,187.977 36.090,187.617 36.277 C 187.309 36.437,186.387 36.614,185.440 36.694 C 184.379 36.785,183.522 36.959,183.023 37.186 C 182.598 37.379,181.725 37.676,181.083 37.845 C 180.177 38.083,179.796 38.283,179.375 38.740 L 178.833 39.328 178.828 52.456 C 178.822 66.653,178.875 65.879,177.886 66.390 C 177.593 66.541,177.308 66.740,177.251 66.832 C 177.181 66.944,181.792 67.000,191.152 67.000 C 203.567 67.000,205.145 66.971,205.060 66.749 C 205.007 66.610,204.765 66.450,204.523 66.393 C 200.647 65.478,197.871 62.247,196.577 57.141 L 196.167 55.523 196.167 41.922 L 196.167 28.320 196.792 27.659 C 197.643 26.759,198.281 26.665,203.481 26.674 C 211.343 26.687,210.681 25.272,210.661 42.024 C 210.647 54.018,210.651 54.167,210.998 54.952 C 212.310 57.917,216.725 58.377,222.196 56.118 C 224.145 55.313,224.017 56.385,223.993 41.142 L 223.973 28.282 224.612 27.643 C 225.529 26.726,226.274 26.629,231.901 26.695 C 237.003 26.755,237.218 26.793,237.985 27.769 L 238.333 28.212 238.333 46.833 C 238.333 67.816,238.446 66.050,237.081 66.501 C 235.817 66.918,236.612 67.000,241.917 67.000 C 247.436 67.000,248.006 66.931,246.761 66.411 C 245.582 65.918,245.667 67.427,245.667 46.966 C 245.667 26.491,245.617 27.439,246.720 26.974 C 247.375 26.697,257.413 26.646,257.856 26.917 C 258.007 27.008,258.440 27.477,258.819 27.958 C 259.618 28.974,260.675 29.185,261.542 28.503 C 261.773 28.321,262.364 28.065,262.856 27.933 C 263.348 27.801,264.344 27.497,265.069 27.256 C 265.813 27.009,266.976 26.777,267.736 26.722 C 268.477 26.669,269.512 26.485,270.036 26.313 C 271.253 25.913,271.849 25.918,272.623 26.333 C 273.071 26.574,273.572 26.668,274.414 26.672 C 275.136 26.675,275.902 26.797,276.417 26.989 C 276.875 27.161,277.750 27.486,278.362 27.713 C 278.973 27.940,279.694 28.282,279.962 28.473 C 281.141 29.313,282.553 29.261,284.583 28.305 C 285.133 28.046,285.713 27.834,285.873 27.833 C 286.032 27.833,286.857 27.598,287.706 27.311 C 289.045 26.858,289.548 26.778,291.500 26.708 C 292.737 26.663,293.898 26.549,294.079 26.454 C 294.843 26.054,295.531 26.024,296.541 26.346 C 297.147 26.540,298.019 26.667,298.745 26.667 C 299.406 26.667,300.278 26.773,300.682 26.903 C 302.176 27.382,303.982 28.131,304.452 28.466 C 304.719 28.656,305.134 28.861,305.376 28.921 C 305.842 29.038,307.500 30.674,307.500 31.016 C 307.500 31.127,307.677 31.451,307.893 31.734 C 308.921 33.084,309.500 34.533,309.646 36.119 C 309.732 37.058,309.894 37.818,310.064 38.077 C 310.317 38.464,310.337 39.638,310.296 51.909 L 310.250 65.317 309.625 65.957 C 308.581 67.026,308.475 67.000,313.917 67.000 C 317.083 67.000,318.833 66.941,318.833 66.833 C 318.833 66.742,318.680 66.667,318.493 66.667 C 318.001 66.667,316.898 66.066,316.594 65.632 C 316.378 65.323,316.333 64.672,316.333 61.821 C 316.333 56.644,316.305 56.679,320.542 56.658 C 324.648 56.638,324.833 56.853,324.833 61.650 C 324.833 64.858,324.761 65.242,323.994 66.116 C 323.722 66.425,323.500 66.751,323.500 66.839 C 323.500 66.941,326.803 67.000,332.431 67.000 C 339.487 67.000,341.347 66.956,341.292 66.792 C 341.254 66.678,340.951 66.540,340.620 66.487 C 340.289 66.433,339.920 66.311,339.800 66.216 C 339.681 66.122,339.171 65.911,338.667 65.749 C 337.445 65.356,336.063 64.651,335.269 64.017 C 334.912 63.733,334.563 63.500,334.492 63.500 C 334.130 63.500,331.122 60.274,330.805 59.544 C 330.614 59.107,330.359 58.635,330.236 58.494 C 329.842 58.041,328.672 54.293,328.669 53.473 C 328.668 53.046,328.554 52.108,328.417 51.390 C 328.113 49.801,328.061 43.176,328.348 42.639 C 328.448 42.453,328.585 41.539,328.654 40.609 C 328.748 39.319,328.863 38.778,329.138 38.333 C 329.336 38.012,329.547 37.387,329.606 36.943 C 329.670 36.463,329.873 35.947,330.107 35.668 C 330.324 35.411,330.634 34.912,330.796 34.559 C 331.511 33.004,332.817 31.539,334.535 30.363 C 334.968 30.068,335.384 29.713,335.462 29.574 C 335.539 29.436,336.142 29.100,336.801 28.828 C 337.461 28.556,338.544 28.102,339.208 27.820 C 341.850 26.698,352.385 26.136,356.083 26.920 C 356.725 27.055,357.703 27.167,358.258 27.167 C 359.210 27.167,359.301 27.202,359.903 27.819 L 360.540 28.472 360.472 30.173 C 360.407 31.785,360.379 31.894,359.942 32.270 L 359.481 32.667 352.282 32.672 L 345.083 32.677 344.250 33.087 C 343.792 33.312,343.228 33.498,342.998 33.498 C 342.498 33.500,340.580 34.754,339.643 35.690 C 338.346 36.987,337.468 38.869,337.009 41.333 C 336.933 41.746,336.787 42.345,336.685 42.666 C 336.344 43.740,336.448 50.620,336.818 51.435 C 336.989 51.812,337.094 52.306,337.050 52.535 C 336.947 53.074,337.573 55.170,337.999 55.711 C 338.181 55.943,338.473 56.464,338.647 56.870 C 339.129 57.995,341.768 59.970,343.167 60.252 C 343.488 60.316,343.989 60.515,344.282 60.692 C 344.829 61.025,356.342 61.070,358.542 60.749 C 359.294 60.639,359.363 60.663,359.936 61.236 L 360.539 61.839 360.473 63.481 C 360.413 64.971,360.361 65.190,359.912 65.850 C 359.639 66.250,359.357 66.672,359.283 66.789 C 359.176 66.959,363.113 67.000,379.575 67.000 L 400.000 67.000 400.000 66.405 C 400.000 65.735,399.787 65.726,398.699 66.350 C 398.169 66.654,397.576 66.667,383.334 66.667 L 368.521 66.667 367.176 65.653 C 365.447 64.351,365.500 64.489,365.500 61.274 C 365.500 58.648,365.517 58.505,365.886 58.054 C 366.098 57.795,366.436 57.311,366.637 56.978 C 366.838 56.646,369.233 54.183,371.960 51.505 C 389.447 34.331,390.508 33.192,389.403 32.768 C 389.258 32.712,384.364 32.667,378.528 32.666 C 365.529 32.666,366.553 32.905,366.517 29.864 C 366.482 26.945,365.162 27.167,382.602 27.167 L 397.050 27.167 397.947 27.606 C 398.440 27.847,398.984 28.222,399.154 28.439 C 400.030 29.552,400.000 30.045,400.000 14.417 L 400.000 0.000 277.333 0.000 C 160.619 0.000,154.667 0.014,154.668 0.292 M399.637 33.946 C 399.484 33.986,399.245 34.352,399.106 34.758 C 398.660 36.068,398.070 36.682,381.200 53.411 C 375.173 59.388,374.655 59.946,374.700 60.411 L 374.750 60.917 386.671 61.000 L 398.592 61.083 399.068 61.458 C 400.058 62.237,400.000 63.083,400.000 47.833 C 400.000 40.133,399.981 33.842,399.958 33.853 C 399.935 33.863,399.791 33.905,399.637 33.946 M56.000 36.546 C 53.792 37.365,51.896 39.692,51.587 41.963 C 51.389 43.421,50.938 43.333,58.650 43.333 C 66.946 43.333,66.684 43.425,66.001 40.754 C 64.994 36.817,60.439 34.901,56.000 36.546 M106.917 36.255 C 106.550 36.398,105.632 36.620,104.877 36.749 C 104.064 36.888,103.209 37.156,102.779 37.408 C 102.380 37.642,101.863 37.833,101.629 37.833 C 100.424 37.833,100.507 36.834,100.459 51.933 C 100.427 62.196,100.368 65.507,100.215 65.691 C 100.034 65.909,99.358 66.274,98.167 66.795 C 97.858 66.930,100.072 66.980,106.708 66.989 C 112.176 66.996,115.667 66.939,115.667 66.844 C 115.667 66.758,115.400 66.436,115.073 66.128 C 114.173 65.279,114.168 65.195,114.180 52.917 C 114.191 42.379,114.144 40.863,113.748 38.917 C 113.616 38.268,112.298 37.038,111.515 36.832 C 111.111 36.726,110.600 36.522,110.380 36.377 C 109.802 35.998,107.758 35.926,106.917 36.255 M265.382 36.326 C 264.996 36.501,264.321 36.691,263.882 36.749 C 263.101 36.851,260.121 37.897,259.708 38.214 C 259.545 38.340,259.500 41.286,259.500 51.950 L 259.500 65.526 259.013 66.013 C 258.745 66.281,258.417 66.500,258.283 66.500 C 258.150 66.500,257.947 66.612,257.833 66.750 C 257.649 66.972,258.499 67.000,265.313 67.000 C 272.767 67.000,273.721 66.935,272.349 66.524 C 271.991 66.417,271.466 66.113,271.182 65.848 L 270.667 65.366 270.667 52.789 C 270.667 45.478,270.600 39.860,270.507 39.371 C 270.276 38.150,269.441 37.039,268.590 36.817 C 268.220 36.721,267.617 36.498,267.250 36.321 C 266.430 35.925,266.264 35.926,265.382 36.326 M289.917 36.293 C 289.611 36.463,288.834 36.613,287.917 36.676 C 285.279 36.860,284.665 37.442,284.974 39.470 C 285.228 41.139,285.246 64.291,284.994 65.199 C 284.864 65.665,284.656 65.907,284.132 66.199 C 282.708 66.991,282.775 67.000,290.486 67.000 C 297.712 67.000,298.327 66.947,297.096 66.433 C 295.849 65.912,295.926 66.778,295.833 52.341 L 295.750 39.417 295.200 38.363 C 294.608 37.230,293.812 36.679,292.750 36.669 C 292.475 36.667,292.025 36.515,291.750 36.333 C 291.145 35.933,290.584 35.920,289.917 36.293 M-0.000 61.339 L 0.000 67.000 6.431 67.000 C 13.523 67.000,13.802 66.951,11.405 66.131 C 9.885 65.610,7.406 64.430,6.917 63.994 C 6.733 63.830,6.196 63.484,5.723 63.223 C 4.803 62.717,3.143 60.737,2.333 59.182 C 2.104 58.742,1.804 58.248,1.667 58.084 C 1.529 57.920,1.267 57.373,1.083 56.869 C 0.858 56.247,0.629 55.907,0.375 55.814 L -0.000 55.677 -0.000 61.339 M223.000 64.987 C 222.496 65.247,221.821 65.513,221.500 65.579 C 220.409 65.803,218.522 66.535,218.433 66.768 C 218.358 66.963,219.052 67.000,222.755 67.000 C 227.058 67.000,227.773 66.910,226.625 66.511 C 226.327 66.408,225.704 65.913,225.240 65.412 C 224.271 64.364,224.228 64.356,223.000 64.987 M67.667 66.833 C 67.667 66.925,67.854 67.000,68.083 67.000 C 68.313 67.000,68.500 66.925,68.500 66.833 C 68.500 66.742,68.313 66.667,68.083 66.667 C 67.854 66.667,67.667 66.742,67.667 66.833 M320.167 66.833 C 320.167 66.927,320.639 67.000,321.250 67.000 C 321.861 67.000,322.333 66.927,322.333 66.833 C 322.333 66.739,321.861 66.667,321.250 66.667 C 320.639 66.667,320.167 66.739,320.167 66.833 M90.875 66.958 C 92.044 66.987,93.956 66.987,95.125 66.958 C 96.294 66.929,95.337 66.906,93.000 66.906 C 90.662 66.906,89.706 66.929,90.875 66.958 M119.042 66.958 C 120.302 66.986,122.365 66.986,123.625 66.958 C 124.885 66.930,123.854 66.906,121.333 66.906 C 118.813 66.906,117.781 66.930,119.042 66.958 M156.708 66.958 C 160.260 66.983,166.073 66.983,169.625 66.958 C 173.177 66.933,170.271 66.913,163.167 66.913 C 156.063 66.913,153.156 66.933,156.708 66.958 M230.217 66.958 C 231.208 66.987,232.783 66.987,233.717 66.958 C 234.652 66.928,233.842 66.904,231.917 66.904 C 229.992 66.904,229.227 66.928,230.217 66.958 M250.635 66.958 C 251.763 66.987,253.563 66.987,254.635 66.958 C 255.706 66.929,254.783 66.905,252.583 66.905 C 250.383 66.905,249.506 66.929,250.635 66.958 M276.301 66.958 C 277.429 66.987,279.229 66.987,280.301 66.958 C 281.373 66.929,280.450 66.905,278.250 66.905 C 276.050 66.905,275.173 66.929,276.301 66.958 M301.042 66.958 C 302.302 66.986,304.365 66.986,305.625 66.958 C 306.885 66.930,305.854 66.906,303.333 66.906 C 300.813 66.906,299.781 66.930,301.042 66.958 " stroke="none" fill="#fbfbfb" fill-rule="evenodd"></path></g></svg>