<?xml version="1.0" standalone="no"?><svg viewBox="0 0 203 86" style="background-color:#ffffff00" xmlns="http://www.w3.org/2000/svg" width="203" height="86"><path d="M110.418 25.875c-.907.47-3.228 1.012-6.13 1.012-9.142 0-13.168-5.673-13.168-12.14 0-8.563 6.312-12.935 13.602-12.935 2.793 0 5.08.542 6.095 1.048l-1.27 5.167c-1.051-.434-2.575-.868-4.533-.868-3.737 0-7.002 2.205-7.002 7.155 0 4.407 2.648 7.153 7.146 7.153 1.56 0 3.338-.289 4.353-.687l.907 5.095zM112.125 23.057l10.81-15.356v-.144h-9.794V2.174h18.282v3.72L120.94 20.999v.144h10.665v5.383h-19.48v-3.468zM149.962 16.698h-8.778v4.48h9.83v5.347h-16.396V2.174h15.888V7.52h-9.322v3.902h8.778v5.275zM172.272 25.875c-.907.47-3.228 1.012-6.13 1.012-9.141 0-13.168-5.673-13.168-12.14 0-8.563 6.312-12.935 13.603-12.935 2.793 0 5.079.542 6.094 1.048l-1.27 5.167c-1.051-.434-2.575-.868-4.534-.868-3.736 0-7.001 2.205-7.001 7.155 0 4.407 2.648 7.153 7.147 7.153 1.56 0 3.337-.289 4.352-.687l.907 5.095zM181.742 2.174v9.032h7.944V2.174h6.566v24.351h-6.566v-9.61h-7.944v9.61h-6.566V2.174h6.566zM92.571 48.206c1.487.759 3.881 1.518 6.348 1.518 2.249 0 3.337-.76 3.337-1.987 0-1.192-1.088-1.843-3.845-2.782-4.135-1.481-6.892-3.722-6.892-7.334 0-4.3 3.664-7.624 9.83-7.624 2.903 0 5.006.542 6.602 1.228l-1.378 5.24a12.772 12.772 0 0 0-5.296-1.156c-1.995 0-3.083.722-3.083 1.805 0 1.23 1.305 1.699 4.389 2.855 4.39 1.626 6.347 3.938 6.347 7.334 0 4.192-3.264 7.769-10.41 7.769-2.938 0-5.804-.76-7.182-1.483l1.233-5.383zM116.369 35.85h-6.24v-5.491h19.153v5.49h-6.347v18.86h-6.566V35.85zM146.77 44.882h-8.78v4.48h9.831v5.348h-16.395V30.359h15.887v5.347h-9.322v3.902h8.778v5.274zM151.196 30.72c1.777-.29 4.352-.543 8.053-.543 3.518 0 6.058.651 7.763 1.952 1.668 1.228 2.792 3.36 2.792 5.853 0 2.457-.834 4.588-2.394 5.998-1.958 1.734-4.824 2.529-8.125 2.529-.653 0-1.196-.073-1.596-.073v8.274h-6.493V30.72zm6.493 10.73c.363.036.798.072 1.487.072 2.54 0 4.135-1.3 4.135-3.395 0-1.807-1.196-3.036-3.7-3.036-.943 0-1.595.073-1.922.145v6.215zM92.825 58.904c1.379-.324 3.12-.542 4.933-.542 3.048 0 5.042.651 6.384 2.024 1.016.976 1.524 2.276 1.524 3.974 0 2.493-1.778 4.588-4.208 5.42v.108c2.068.47 5.187 2.24 5.187 6.214 0 1.988-.725 3.505-1.813 4.66-1.633 1.627-4.28 2.313-7.763 2.313-1.85 0-3.264-.144-4.244-.217V58.904zm1.741 10.333h3.555c3.555 0 5.767-2.095 5.767-4.768 0-3.433-2.611-4.661-6.239-4.661-1.596 0-2.538.108-3.083.253v9.176zm0 12.213c.725.144 1.705.18 3.01.18 3.737 0 7.256-1.337 7.256-5.492 0-3.83-3.301-5.49-7.182-5.49h-3.084V81.45zM114.7 82.895v-10.55l-7.763-13.801h1.923l4.027 7.262c1.05 1.914 1.922 3.504 2.793 5.238h.071c.726-1.626 1.741-3.324 2.83-5.274l4.172-7.226h1.922L116.44 72.38v10.514H114.7zM125.766 76.391c1.487.759 3.881 1.517 6.348 1.517 2.25 0 3.337-.758 3.337-1.987 0-1.191-1.088-1.842-3.844-2.781-4.136-1.481-6.893-3.722-6.893-7.334 0-4.3 3.664-7.624 9.83-7.624 2.902 0 5.006.542 6.603 1.228l-1.379 5.24c-1.052-.47-2.866-1.157-5.296-1.157-1.995 0-3.084.723-3.084 1.806 0 1.23 1.306 1.699 4.39 2.854 4.389 1.626 6.347 3.939 6.347 7.335 0 4.192-3.263 7.768-10.41 7.768-2.939 0-5.804-.758-7.182-1.482l1.233-5.383zM149.564 64.035h-6.24v-5.491h19.154v5.49h-6.349v18.86h-6.565v-18.86zM179.965 73.067h-8.779v4.48h9.83v5.348H164.62V58.544h15.889v5.347h-9.323v3.902h8.779v5.274zM184.391 58.904c1.778-.289 4.353-.542 8.053-.542 3.519 0 6.059.651 7.763 1.952 1.67 1.228 2.793 3.36 2.793 5.852 0 2.458-.834 4.589-2.394 5.998-1.959 1.734-4.825 2.53-8.125 2.53-.654 0-1.197-.073-1.596-.073v8.274h-6.494v-23.99zm6.494 10.731c.363.036.798.072 1.487.072 2.538 0 4.135-1.3 4.135-3.395 0-1.807-1.197-3.036-3.7-3.036-.943 0-1.596.072-1.922.145v6.214z" fill="#221e1f"/><rect y=".085" width="86.174" height="85.831" fill="#221e1f" rx="6" ry="6"/><path d="M24.472 26.104c-.693-2.684-.038-5.712 2.72-7.276 4.98-1.845 11.754 2.144 10.443 8.2-.655 3.027-1.427 5.183-5.698 5.748-4.27.563-6.426-2.648-7.465-6.672zM17.754 25.358c2.384-.169 3.352.736 4.478 3.114 1.125 2.377-.02 6.989-3.76 6.723-3.171-.443-4.082-2.715-4.41-4.04-.33-1.327.39-5.565 3.692-5.797zM9.001 31.25c2.449-.79 5.58.875 5.877 3.578.298 2.702-2.472 5.222-4.985 4.532-1.49-.626-3.29-3.046-2.913-4.806.375-1.762.284-2.156 2.021-3.303zM43.019 86a38.28 38.28 0 0 0-.891-3.838c-2.746-9.662-5.349-18.163-5.131-23.213.22-5.05 3.817-25.064-4.531-25.166-8.347-.102-22.563 5.23-25.594 19.606-1.375 11.34 4.487 17.49 4.487 17.49s1.275.854 3.504 6.068c.663 1.552 1.476 5.089 2.765 9.052M3.692 38.093c2.221-.658 5.089.823 5.39 3.173.301 2.35-2.19 4.506-4.486 3.88-1.363-.563-3.027-2.682-2.706-4.207.32-1.524.234-1.87 1.802-2.846zM.859 45.363c-.394.269-.665.483-.859.69v4.3c.427.608.98 1.108 1.488 1.324 1.902.522 4.017-1.455 3.807-3.56-.21-2.103-2.573-3.383-4.436-2.754zM59.308 1.848a7.956 7.956 0 0 0 .255-1.841 3431.15 3431.15 0 0 0-13.46 0 6.742 6.742 0 0 0 .041 2.766c.657 3.029 1.427 5.183 5.698 5.748 4.27.563 6.428-2.648 7.466-6.673zM66.025 1.103c-2.381-.167-3.352.737-4.475 3.114-1.126 2.378.02 6.99 3.757 6.723 3.174-.441 4.082-2.715 4.413-4.04.329-1.325-.39-5.564-3.695-5.798zM74.78 6.995c-2.45-.789-5.58.875-5.877 3.58-.296 2.702 2.472 5.22 4.983 4.532 1.492-.629 3.29-3.046 2.915-4.808-.375-1.76-.285-2.156-2.022-3.303z" fill="#fff100"/><path d="M44.755 76.344s-7.326-3.573-3.102-18.438c2.745-9.66 5.35-18.163 5.13-23.21-.218-5.05-3.816-25.067 4.532-25.168 8.347-.102 22.564 5.232 25.595 19.607 1.376 11.338-4.488 17.49-4.488 17.49s-1.275.853-3.504 6.069c-2.231 5.212-6.156 32.905-24.164 23.65zM80.088 13.838c-2.22-.657-5.087.824-5.389 3.174-.3 2.35 2.19 4.505 4.484 3.88 1.364-.564 3.03-2.682 2.707-4.21-.32-1.523-.233-1.866-1.802-2.844zM82.923 21.108c-1.862-.628-4.227.651-4.438 2.754-.21 2.105 1.907 4.082 3.808 3.56 1.128-.48 2.476-2.354 2.18-3.729-.293-1.374-.226-1.68-1.55-2.585z" fill="#fff100"/></svg>